<mxfile host="app.diagrams.net" modified="2021-10-15T19:47:55.546Z" agent="5.0 (Windows NT 10.0; Win64; x64) AppleWebKit/537.36 (KHTML, like Gecko) Chrome/94.0.4606.81 Safari/537.36" etag="KmzJ3Ee-g9nnUh28wROW" version="15.5.4" type="github">
  <diagram id="AqOv732YDV_Qfaz5YG4F" name="Page-1">
    <mxGraphModel dx="1422" dy="794" grid="1" gridSize="10" guides="1" tooltips="1" connect="1" arrows="1" fold="1" page="1" pageScale="1" pageWidth="1400" pageHeight="850" math="0" shadow="0">
      <root>
        <mxCell id="0" />
        <mxCell id="1" parent="0" />
        <mxCell id="Hp0-baNGFFSM0JvMzjNv-1" value="" style="rounded=0;whiteSpace=wrap;html=1;fillColor=#545454;fontColor=#212529;" vertex="1" parent="1">
          <mxGeometry width="176" height="660" as="geometry" />
        </mxCell>
        <mxCell id="Hp0-baNGFFSM0JvMzjNv-2" value="" style="rounded=0;whiteSpace=wrap;html=1;fontColor=#B5B5B5;labelBackgroundColor=#A3A3A3;" vertex="1" parent="1">
          <mxGeometry x="176" width="836" height="660" as="geometry" />
        </mxCell>
        <mxCell id="Hp0-baNGFFSM0JvMzjNv-3" value="" style="rounded=0;whiteSpace=wrap;html=1;fontSize=15;fontColor=#D6D6D6;fillColor=#FFFFFF;labelBackgroundColor=#A6A6A6;verticalAlign=middle;shadow=0;gradientColor=#BABABA;" vertex="1" parent="1">
          <mxGeometry x="176" width="836" height="60" as="geometry" />
        </mxCell>
        <mxCell id="Hp0-baNGFFSM0JvMzjNv-4" value="" style="sketch=0;outlineConnect=0;fontColor=#232F3E;gradientColor=none;strokeColor=#232F3E;fillColor=none;dashed=0;verticalLabelPosition=bottom;verticalAlign=top;align=center;html=1;fontSize=12;fontStyle=0;aspect=fixed;shape=mxgraph.aws4.resourceIcon;resIcon=mxgraph.aws4.user;" vertex="1" parent="1">
          <mxGeometry x="924" y="19" width="22" height="22" as="geometry" />
        </mxCell>
        <mxCell id="Hp0-baNGFFSM0JvMzjNv-5" value="balcantara" style="text;html=1;strokeColor=none;fillColor=none;align=center;verticalAlign=middle;whiteSpace=wrap;rounded=0;fontSize=15;fontColor=#212529;fontFamily=Times New Roman;" vertex="1" parent="1">
          <mxGeometry x="858" y="15.5" width="66" height="29" as="geometry" />
        </mxCell>
        <mxCell id="Hp0-baNGFFSM0JvMzjNv-9" value="&lt;font color=&quot;#000000&quot;&gt;Users&lt;/font&gt;" style="text;html=1;strokeColor=none;fillColor=none;align=center;verticalAlign=middle;whiteSpace=wrap;rounded=0;fontSize=14;fontColor=#A1A1A1;" vertex="1" parent="1">
          <mxGeometry x="150" y="70" width="143" height="39" as="geometry" />
        </mxCell>
        <mxCell id="Hp0-baNGFFSM0JvMzjNv-10" value="" style="endArrow=none;html=1;rounded=0;fontSize=17;fontColor=#000000;strokeColor=#919191;fillColor=#C9C9C9;" edge="1" parent="1">
          <mxGeometry width="50" height="50" relative="1" as="geometry">
            <mxPoint y="44" as="sourcePoint" />
            <mxPoint x="176" y="44" as="targetPoint" />
          </mxGeometry>
        </mxCell>
        <mxCell id="Hp0-baNGFFSM0JvMzjNv-11" value="" style="endArrow=none;html=1;rounded=0;fontSize=17;fontColor=#000000;strokeColor=#919191;fillColor=#C9C9C9;entryX=1;entryY=0.209;entryDx=0;entryDy=0;entryPerimeter=0;" edge="1" parent="1" target="Hp0-baNGFFSM0JvMzjNv-1">
          <mxGeometry width="50" height="50" relative="1" as="geometry">
            <mxPoint y="138" as="sourcePoint" />
            <mxPoint x="50" y="88" as="targetPoint" />
          </mxGeometry>
        </mxCell>
        <mxCell id="Hp0-baNGFFSM0JvMzjNv-12" value="" style="endArrow=none;html=1;rounded=0;fontSize=17;fontColor=#000000;strokeColor=#919191;fillColor=#C9C9C9;" edge="1" parent="1" target="Hp0-baNGFFSM0JvMzjNv-1">
          <mxGeometry width="50" height="50" relative="1" as="geometry">
            <mxPoint y="91" as="sourcePoint" />
            <mxPoint x="50" y="41" as="targetPoint" />
            <Array as="points">
              <mxPoint x="176" y="91" />
            </Array>
          </mxGeometry>
        </mxCell>
        <mxCell id="Hp0-baNGFFSM0JvMzjNv-13" value="&lt;font style=&quot;font-size: 14px&quot; face=&quot;Times New Roman&quot;&gt;Consultar&lt;/font&gt;" style="text;html=1;strokeColor=none;fillColor=none;align=center;verticalAlign=middle;whiteSpace=wrap;rounded=0;fontSize=17;fontColor=#F2F2F2;" vertex="1" parent="1">
          <mxGeometry x="11" y="11" width="60" height="30" as="geometry" />
        </mxCell>
        <mxCell id="Hp0-baNGFFSM0JvMzjNv-14" value="Instituciones" style="text;html=1;strokeColor=none;fillColor=none;align=center;verticalAlign=middle;whiteSpace=wrap;rounded=0;fontFamily=Times New Roman;fontSize=14;fontColor=#F2F2F2;" vertex="1" parent="1">
          <mxGeometry x="11" y="99" width="60" height="30" as="geometry" />
        </mxCell>
        <mxCell id="Hp0-baNGFFSM0JvMzjNv-15" value="Users" style="text;html=1;strokeColor=none;fillColor=none;align=center;verticalAlign=middle;whiteSpace=wrap;rounded=0;fontFamily=Times New Roman;fontSize=14;fontColor=#F2F2F2;" vertex="1" parent="1">
          <mxGeometry y="60" width="60" height="30" as="geometry" />
        </mxCell>
        <mxCell id="Hp0-baNGFFSM0JvMzjNv-16" value="" style="shape=image;html=1;verticalAlign=top;verticalLabelPosition=bottom;labelBackgroundColor=#ffffff;imageAspect=0;aspect=fixed;image=https://cdn2.iconfinder.com/data/icons/essential-web-5/50/maximize-expand-large-extensive-increase-128.png;fontFamily=Times New Roman;fontSize=4;fontColor=#000000;strokeColor=#F2F2F2;fillColor=#919191;" vertex="1" parent="1">
          <mxGeometry x="957" y="22.75" width="14.5" height="14.5" as="geometry" />
        </mxCell>
        <mxCell id="Hp0-baNGFFSM0JvMzjNv-17" value="" style="rounded=0;whiteSpace=wrap;html=1;fontFamily=Times New Roman;fontSize=4;fontColor=#828282;strokeColor=#212529;fillColor=#545454;align=left;" vertex="1" parent="1">
          <mxGeometry x="176" y="649" width="836" height="11" as="geometry" />
        </mxCell>
        <mxCell id="Hp0-baNGFFSM0JvMzjNv-18" value="&lt;font&gt;New User&lt;/font&gt;" style="text;html=1;strokeColor=none;fillColor=none;align=center;verticalAlign=middle;whiteSpace=wrap;rounded=0;fontFamily=Times New Roman;fontSize=13;fontColor=#322BFF;fontStyle=4" vertex="1" parent="1">
          <mxGeometry x="230" y="165" width="132" height="33" as="geometry" />
        </mxCell>
        <mxCell id="Hp0-baNGFFSM0JvMzjNv-19" value="" style="rounded=0;whiteSpace=wrap;html=1;labelBackgroundColor=default;labelBorderColor=none;fontFamily=Times New Roman;fontSize=13;fontColor=#000000;strokeColor=#F2F2F2;fillColor=#212529;gradientColor=none;align=left;" vertex="1" parent="1">
          <mxGeometry x="264" y="198" width="120" height="27" as="geometry" />
        </mxCell>
        <mxCell id="Hp0-baNGFFSM0JvMzjNv-20" value="" style="rounded=0;whiteSpace=wrap;html=1;labelBackgroundColor=default;labelBorderColor=none;fontFamily=Times New Roman;fontSize=13;fontColor=#000000;strokeColor=#F2F2F2;fillColor=#000000;gradientColor=none;align=left;" vertex="1" parent="1">
          <mxGeometry x="384" y="198" width="120" height="27" as="geometry" />
        </mxCell>
        <mxCell id="Hp0-baNGFFSM0JvMzjNv-21" value="" style="rounded=0;whiteSpace=wrap;html=1;labelBackgroundColor=default;labelBorderColor=none;fontFamily=Times New Roman;fontSize=13;fontColor=default;strokeColor=#F2F2F2;fillColor=#000000;gradientColor=none;align=left;" vertex="1" parent="1">
          <mxGeometry x="624" y="198" width="120" height="27" as="geometry" />
        </mxCell>
        <mxCell id="Hp0-baNGFFSM0JvMzjNv-22" value="" style="rounded=0;whiteSpace=wrap;html=1;labelBackgroundColor=default;labelBorderColor=none;fontFamily=Times New Roman;fontSize=13;fontColor=#F2F2F2;strokeColor=#212529;fillColor=default;gradientColor=none;align=left;" vertex="1" parent="1">
          <mxGeometry x="504" y="225" width="120" height="27" as="geometry" />
        </mxCell>
        <mxCell id="Hp0-baNGFFSM0JvMzjNv-23" value="" style="rounded=0;whiteSpace=wrap;html=1;labelBackgroundColor=default;labelBorderColor=none;fontFamily=Times New Roman;fontSize=13;fontColor=default;strokeColor=#F2F2F2;fillColor=#000000;gradientColor=none;align=left;" vertex="1" parent="1">
          <mxGeometry x="504" y="198" width="120" height="27" as="geometry" />
        </mxCell>
        <mxCell id="Hp0-baNGFFSM0JvMzjNv-24" value="Username" style="text;html=1;strokeColor=none;fillColor=none;align=center;verticalAlign=middle;whiteSpace=wrap;rounded=0;labelBackgroundColor=none;labelBorderColor=none;fontFamily=Times New Roman;fontSize=13;fontColor=#F2F2F2;" vertex="1" parent="1">
          <mxGeometry x="266" y="196.5" width="60" height="30" as="geometry" />
        </mxCell>
        <mxCell id="Hp0-baNGFFSM0JvMzjNv-25" value="Rol" style="text;html=1;strokeColor=none;fillColor=none;align=center;verticalAlign=middle;whiteSpace=wrap;rounded=0;shadow=0;labelBackgroundColor=none;labelBorderColor=none;fontFamily=Times New Roman;fontSize=13;fontColor=#F2F2F2;" vertex="1" parent="1">
          <mxGeometry x="384" y="196.5" width="60" height="30" as="geometry" />
        </mxCell>
        <mxCell id="Hp0-baNGFFSM0JvMzjNv-26" value="Institucion" style="text;html=1;strokeColor=none;fillColor=none;align=center;verticalAlign=middle;whiteSpace=wrap;rounded=0;shadow=0;labelBackgroundColor=none;labelBorderColor=none;fontFamily=Times New Roman;fontSize=13;fontColor=#F2F2F2;" vertex="1" parent="1">
          <mxGeometry x="504" y="195" width="60" height="30" as="geometry" />
        </mxCell>
        <mxCell id="Hp0-baNGFFSM0JvMzjNv-27" value="Text" style="text;html=1;strokeColor=none;fillColor=none;align=center;verticalAlign=middle;whiteSpace=wrap;rounded=0;shadow=0;labelBackgroundColor=none;labelBorderColor=none;fontFamily=Times New Roman;fontSize=13;fontColor=#F2F2F2;" vertex="1" parent="1">
          <mxGeometry x="451" y="286" width="60" height="30" as="geometry" />
        </mxCell>
        <mxCell id="Hp0-baNGFFSM0JvMzjNv-28" value="Text" style="text;html=1;strokeColor=none;fillColor=none;align=center;verticalAlign=middle;whiteSpace=wrap;rounded=0;shadow=0;labelBackgroundColor=none;labelBorderColor=none;fontFamily=Times New Roman;fontSize=13;fontColor=#F2F2F2;" vertex="1" parent="1">
          <mxGeometry x="451" y="286" width="60" height="30" as="geometry" />
        </mxCell>
        <mxCell id="Hp0-baNGFFSM0JvMzjNv-29" value="" style="shape=image;html=1;verticalAlign=top;verticalLabelPosition=bottom;labelBackgroundColor=none;imageAspect=0;aspect=fixed;image=https://cdn4.iconfinder.com/data/icons/wirecons-free-vector-icons/32/menu-alt-128.png;shadow=0;labelBorderColor=none;fontFamily=Times New Roman;fontSize=13;fontColor=#232F3E;strokeColor=#F2F2F2;fillColor=none;gradientColor=#BABABA;" vertex="1" parent="1">
          <mxGeometry x="191" y="18" width="26" height="26" as="geometry" />
        </mxCell>
        <mxCell id="Hp0-baNGFFSM0JvMzjNv-34" value="" style="rounded=0;whiteSpace=wrap;html=1;labelBackgroundColor=default;labelBorderColor=none;fontFamily=Times New Roman;fontSize=13;fontColor=#F2F2F2;strokeColor=#212529;fillColor=default;gradientColor=none;align=left;" vertex="1" parent="1">
          <mxGeometry x="384" y="225" width="120" height="27" as="geometry" />
        </mxCell>
        <mxCell id="Hp0-baNGFFSM0JvMzjNv-35" value="" style="rounded=0;whiteSpace=wrap;html=1;labelBackgroundColor=default;labelBorderColor=none;fontFamily=Times New Roman;fontSize=13;fontColor=#F2F2F2;strokeColor=#212529;fillColor=default;gradientColor=none;align=left;" vertex="1" parent="1">
          <mxGeometry x="264" y="225" width="120" height="27" as="geometry" />
        </mxCell>
        <mxCell id="Hp0-baNGFFSM0JvMzjNv-36" value="" style="shape=image;html=1;verticalAlign=top;verticalLabelPosition=bottom;labelBackgroundColor=default;imageAspect=0;aspect=fixed;image=https://cdn3.iconfinder.com/data/icons/google-material-design-icons/48/ic_expand_more_48px-128.png;labelBorderColor=#000000;fontColor=#F2F2F2;strokeColor=#212529;fillColor=default;rotation=90;" vertex="1" parent="1">
          <mxGeometry x="148" y="60" width="28" height="28" as="geometry" />
        </mxCell>
        <mxCell id="Hp0-baNGFFSM0JvMzjNv-39" value="" style="rounded=0;whiteSpace=wrap;html=1;labelBackgroundColor=default;labelBorderColor=none;fontFamily=Times New Roman;fontSize=13;fontColor=#F2F2F2;strokeColor=#212529;fillColor=default;gradientColor=none;align=left;" vertex="1" parent="1">
          <mxGeometry x="624" y="225" width="120" height="27" as="geometry" />
        </mxCell>
        <mxCell id="Hp0-baNGFFSM0JvMzjNv-42" value="&lt;font color=&quot;#322bff&quot;&gt;&lt;u&gt;Edit&lt;/u&gt;&lt;/font&gt;" style="text;html=1;strokeColor=none;fillColor=none;align=center;verticalAlign=middle;whiteSpace=wrap;rounded=0;labelBackgroundColor=default;labelBorderColor=none;fontColor=#000000;" vertex="1" parent="1">
          <mxGeometry x="624" y="222" width="64" height="30" as="geometry" />
        </mxCell>
        <mxCell id="Hp0-baNGFFSM0JvMzjNv-43" value="&lt;font color=&quot;#ff3333&quot;&gt;&lt;u&gt;Delete&lt;/u&gt;&lt;/font&gt;" style="text;html=1;strokeColor=none;fillColor=none;align=center;verticalAlign=middle;whiteSpace=wrap;rounded=0;labelBackgroundColor=default;labelBorderColor=none;fontColor=#322BFF;" vertex="1" parent="1">
          <mxGeometry x="660" y="222" width="60" height="30" as="geometry" />
        </mxCell>
        <mxCell id="Hp0-baNGFFSM0JvMzjNv-44" value="&lt;font color=&quot;#000000&quot;&gt;/&lt;/font&gt;" style="text;html=1;strokeColor=none;fillColor=none;align=center;verticalAlign=middle;whiteSpace=wrap;rounded=0;labelBackgroundColor=default;labelBorderColor=none;fontColor=#FF3333;fontStyle=4" vertex="1" parent="1">
          <mxGeometry x="640" y="222" width="60" height="30" as="geometry" />
        </mxCell>
      </root>
    </mxGraphModel>
  </diagram>
</mxfile>
